<?xml version="1.0" encoding="UTF-8"?>
<svg viewBox="0 0 328.97458 500.71533" xmlns="http://www.w3.org/2000/svg" xmlns:xlink="http://www.w3.org/1999/xlink">
 <defs>
  <filter id="g">
   <feGaussianBlur stdDeviation=".64944"/>
  </filter>
  <filter id="f">
   <feGaussianBlur stdDeviation=".6547"/>
  </filter>
  <filter id="b"/>
  <linearGradient id="a">
   <stop stop-color="#c7ced5" offset="0"/>
   <stop stop-color="#30484c" offset=".30005"/>
   <stop stop-color="#d6d6e2" offset=".55839"/>
   <stop stop-color="#92979a" offset="1"/>
  </linearGradient>
  <linearGradient id="c" x1="275.77" x2="296.46" gradientUnits="userSpaceOnUse">
   <stop stop-color="#c6c7cc" offset="0"/>
   <stop stop-color="#4f4f57" offset=".32249"/>
   <stop stop-color="#191d20" offset=".57249"/>
   <stop stop-color="#aab1b9" offset="1"/>
  </linearGradient>
  <linearGradient id="e" x1="310.96" x2="339.58" gradientTransform="matrix(-.30239 .49163 -.25323 -.15576 461.69 114.36)" gradientUnits="userSpaceOnUse" xlink:href="#a"/>
  <linearGradient id="d" x1="270.96" x2="299.58" gradientUnits="userSpaceOnUse" xlink:href="#a"/>
 </defs>
 <g transform="translate(-315.25 -58.792)" fill="#17181a">
  <path d="m507.14 267.3c0 13.235-21.916 23.964-48.95 23.964s-48.95-10.729-48.95-23.964 21.916-23.964 48.95-23.964 48.95 10.729 48.95 23.964z"/>
  <path d="m409.34 243.18h97.801v25.718h-97.801z"/>
 </g>
 <g transform="translate(-289.75 -52.292)">
  <path d="m485.14 232.49c0 10.094-23.707 18.278-52.95 18.278s-52.95-8.1832-52.95-18.278 23.707-18.278 52.95-18.278 52.95 8.1832 52.95 18.278z" fill="#dddfdc"/>
  <path d="m379.34 214.09h105.79v19.615h-105.79z" fill="#dddfdc"/>
  <path d="m485.14 214.41c-1e-5 10.094-23.707 18.278-52.95 18.278s-52.95-8.1832-52.95-18.278 23.707-18.278 52.95-18.278 52.95 8.1832 52.95 18.278z" fill="#e3e5e4"/>
 </g>
 <g transform="translate(-29.745 -42.792)">
  <path transform="matrix(1.0845 0 0 1.0845 -14.741 -44.808)" d="m183.31 535.79c0 3.69-3.9814 6.6813-8.8927 6.6813s-8.8927-2.9913-8.8927-6.6813 3.9814-6.6813 8.8927-6.6813 8.8927 2.9913 8.8927 6.6813z" fill="#1a1a1a"/>
  <path transform="matrix(.62601 -.30688 .30688 .62601 70.746 166.11)" d="m183.31 535.79c0 3.69-3.9814 6.6813-8.8927 6.6813s-8.8927-2.9913-8.8927-6.6813 3.9814-6.6813 8.8927-6.6813 8.8927 2.9913 8.8927 6.6813z" fill="#1a1a1a"/>
  <path d="m177.29 535.7 181.43-97.49v-65.496l-167.5 83.563s-10.412 32.686-13.551 49.686c-1.8 9.7482-0.37641 29.736-0.37641 29.736z" fill="#c1c2c4"/>
  <path d="m177.29 535.7c-4.3726 2.9873-97.59-24.182-114.62-72.459-0.11016-30.241 6.9641-51.536 14.492-71.142 40.181 48.072 76.712 51.128 114.05 64.178 0 0-10.412 32.686-13.551 49.686-1.8 9.7482-0.37641 29.736-0.37641 29.736z" fill="#e1e3e2"/>
  <path d="m358.72 372.72-167.5 83.562c-37.341-13.05-73.882-16.116-114.06-64.188 20.178-13.276 112.34-48.938 168.84-71.88 38.032 17.134 79.164 31.789 112.72 52.505z" fill="#e7e9e8"/>
  <path d="m338.25 374.5-15.532 8.8884-9.2058-5.315 15.343-8.8583 9.3953 5.2848z"/>
  <path d="m335.21 375.03-12.022 6.6738-7.1252-3.9907 11.875-6.6511 7.2719 3.968z" fill="#333" stroke="#000" stroke-width=".3"/>
  <path d="m319.99 373.33-3.9422 4.3757 7.2026 3.9486 3.829-4.8416-7.0894-3.4826zm3.2604 8.3242 8.156-4.514-4.3312-0.31505-3.8248 4.8291z" fill="#333" stroke="#000" stroke-width=".3"/>
  <path d="m323.29 373.63-3.3021-0.30749 7.0948 3.4748 4.3031 0.35689-8.0959-3.5242z" fill="#333" stroke="#000" stroke-width=".3"/>
  <path d="m251.31 331.62-15.532 8.8884-9.2058-5.315 15.343-8.8583 9.3953 5.2848z"/>
  <g transform="translate(-86.939 -42.881)" fill="#333" stroke="#000" stroke-width=".3">
   <path d="m335.21 375.03-12.022 6.6738-7.1252-3.9907 11.875-6.6511 7.2719 3.968z"/>
   <path d="m319.99 373.33-3.9422 4.3757 7.2026 3.9486 3.829-4.8416-7.0894-3.4826zm3.2604 8.3242 8.156-4.514-4.3312-0.31505-3.8248 4.8291z"/>
   <path d="m323.29 373.63-3.3021-0.30749 7.0948 3.4748 4.3031 0.35689-8.0959-3.5242z"/>
  </g>
  <path transform="matrix(1.0984 0 0 1.2454 -27.137 -106.41)" d="m247.13 409.11c0 15.914-28.967 28.815-64.7 28.815s-64.7-12.901-64.7-28.815 28.967-28.815 64.7-28.815 64.7 12.901 64.7 28.815z" fill="#5f8085"/>
  <path d="m132.13 386.87 78.267-39.937 5.6298 5.7765-80.919 38.876c-2.82 1.3549-5.7017-3.3261-2.9782-4.7158z" filter="url(#g)"/>
  <path d="m132.13 384.87 78.267-39.937 5.6298 5.7765-80.919 38.876c-2.82 1.3549-5.7017-3.3261-2.9782-4.7158z" fill="#aeb0af"/>
  <g transform="matrix(1 0 0 .74471 -.92808 87.11)" filter="url(#b)">
   <path d="m206.48 342.63h10.518v11.225h-10.518z"/>
   <path d="m216.99 342.91c0 1.4645-2.3546 2.6516-5.2591 2.6516s-5.2591-1.1872-5.2591-2.6516 2.3546-2.6516 5.2591-2.6516 5.2591 1.1872 5.2591 2.6516z"/>
   <path transform="translate(0 10.707)" d="m216.99 342.91c0 1.4645-2.3546 2.6516-5.2591 2.6516s-5.2591-1.1872-5.2591-2.6516 2.3546-2.6516 5.2591-2.6516 5.2591 1.1872 5.2591 2.6516z"/>
  </g>
  <g transform="matrix(1 0 0 .74471 -1.6022 86.871)" fill="#676769">
   <path d="m206.48 342.63h10.518v11.225h-10.518z"/>
   <path d="m216.99 342.91c0 1.4645-2.3546 2.6516-5.2591 2.6516s-5.2591-1.1872-5.2591-2.6516 2.3546-2.6516 5.2591-2.6516 5.2591 1.1872 5.2591 2.6516z"/>
   <path transform="translate(0 10.707)" d="m216.99 342.91c0 1.4645-2.3546 2.6516-5.2591 2.6516s-5.2591-1.1872-5.2591-2.6516 2.3546-2.6516 5.2591-2.6516 5.2591 1.1872 5.2591 2.6516z"/>
  </g>
  <path d="m201.43 423.64 76.146-42.058 6.6905 6.8372-79.858 39.937c-2.7982 1.3994-5.6547-3.2375-2.9782-4.7158z" filter="url(#f)"/>
  <path d="m201.43 421.64 76.146-42.058 6.6905 6.8372-79.858 39.937c-2.7982 1.3994-5.6547-3.2375-2.9782-4.7158z" fill="#b4b5b9"/>
  <g transform="matrix(1 0 0 .74471 67.838 121.94)" filter="url(#b)">
   <path d="m206.48 342.63h10.518v11.225h-10.518z"/>
   <path d="m216.99 342.91c0 1.4645-2.3546 2.6516-5.2591 2.6516s-5.2591-1.1872-5.2591-2.6516 2.3546-2.6516 5.2591-2.6516 5.2591 1.1872 5.2591 2.6516z"/>
   <path transform="translate(0 10.707)" d="m216.99 342.91c0 1.4645-2.3546 2.6516-5.2591 2.6516s-5.2591-1.1872-5.2591-2.6516 2.3546-2.6516 5.2591-2.6516 5.2591 1.1872 5.2591 2.6516z"/>
  </g>
  <g transform="matrix(1 0 0 .74471 67.164 121.7)" fill="#676769">
   <path d="m206.48 342.63h10.518v11.225h-10.518z"/>
   <path d="m216.99 342.91c0 1.4645-2.3546 2.6516-5.2591 2.6516s-5.2591-1.1872-5.2591-2.6516 2.3546-2.6516 5.2591-2.6516 5.2591 1.1872 5.2591 2.6516z"/>
   <path transform="translate(0 10.707)" d="m216.99 342.91c0 1.4645-2.3546 2.6516-5.2591 2.6516s-5.2591-1.1872-5.2591-2.6516 2.3546-2.6516 5.2591-2.6516 5.2591 1.1872 5.2591 2.6516z"/>
  </g>
  <path d="m306.03 353.88c0 7.2639-11.667 13.152-26.059 13.152s-26.06-5.8885-26.06-13.152 11.667-13.152 26.06-13.152 26.059 5.8885 26.059 13.152z" fill="#acacac"/>
  <path d="m253.97 337.15h52.066v17.608h-52.066z" fill="#acacac"/>
  <path d="m306.03 337.58c0 7.2639-11.667 13.152-26.059 13.152s-26.06-5.8885-26.06-13.152 11.667-13.152 26.06-13.152 26.059 5.8885 26.059 13.152z" fill="#d1d0d7"/>
  <path d="m296.37 335.35c0 4.6102-6.9711 8.3475-15.57 8.3475s-15.57-3.7373-15.57-8.3475 6.9711-8.3475 15.57-8.3475 15.57 3.7373 15.57 8.3475z" fill="#7b7984"/>
  <path d="m265.26 324.73h31.109v11.175h-31.109z" fill="#7b7984"/>
  <path d="m296.37 325c0 4.6102-6.9711 8.3475-15.57 8.3475s-15.57-3.7373-15.57-8.3475 6.9711-8.3475 15.57-8.3475 15.57 3.7373 15.57 8.3475z" fill="#bebec0"/>
  <path d="m271.22 263.41c-0.0308 18.978 0.0888 37.961 0 56.938 0 4.6102 4.6141 8.3438 10.344 8.3438s10.344-3.7336 10.344-8.3438v-56.938h-20.688z" fill="url(#d)"/>
 </g>
 <path d="m200.99 143.06 49.162-12.388s13.006-0.38734 19.039 1.6565c10.845 3.6737 9.5392 9.6565 9.5392 9.6565l-54.792 17.574-22.948-16.499z" fill="#e6e8e5"/>
 <g transform="translate(-29.745 -42.792)">
  <path d="m275.77 156.4c-0.0308 8.0765 0.0888 16.155 0 24.23 0 1.9619 4.6141 3.5508 10.344 3.5508s10.344-1.5889 10.344-3.5508v-24.23h-20.688z" fill="url(#c)"/>
  <g transform="matrix(1.059 0 0 1.059 -43.876 -1.521)">
   <path d="m322.73 147.77c0 3.1376-4.7444 5.6812-10.597 5.6812s-10.597-2.5435-10.597-5.6812 4.7444-5.6811 10.597-5.6811 10.597 2.5435 10.597 5.6811z" fill="#35393c"/>
   <path d="m301.56 142.92h21.172v5.2305h-21.172z" fill="#35393c"/>
   <path d="m322.73 142.73c0 3.1376-4.7444 5.6812-10.597 5.6812s-10.597-2.5435-10.597-5.6812 4.7444-5.6811 10.597-5.6811 10.597 2.5435 10.597 5.6811z" fill="#c9cdd0"/>
  </g>
 </g>
 <g transform="translate(-29.745 -42.792)">
  <path d="m272.8 274.76 32.85-11.667 2.8284-78.312-33.557 10.74-2.1213 79.239z" fill="#989ba2"/>
  <path transform="matrix(.99809 0 0 1.1158 -.51633 -27.096)" d="m292.57 224.82c0 4.1493-3.245 7.513-7.2478 7.513s-7.2478-3.3637-7.2478-7.513 3.245-7.513 7.2478-7.513 7.2478 3.3637 7.2478 7.513z" fill="#4c535d"/>
  <path d="m300.88 226.34c-4.7966-2.9711-9.6398-5.869-14.418-8.8684-1.1674-0.71806-3.5082 0.96885-5.2408 3.7857s-2.1824 5.6668-1.015 6.3849l14.418 8.8684 6.2557-10.171z" fill="url(#e)"/>
  <g transform="matrix(-.45562 .94621 -1.0327 -.40664 727.16 -11.402)">
   <path d="m389.78 250.38c0 7.2639-11.667 13.152-26.059 13.152s-26.06-5.8885-26.06-13.152 11.667-13.152 26.06-13.152 26.059 5.8885 26.059 13.152z" fill="#191d20"/>
   <path d="m337.72 241.28h52.066v9.9825h-52.066z" fill="#191d20"/>
   <path d="m389.78 241.58c0 7.2639-11.667 13.152-26.059 13.152s-26.06-5.8885-26.06-13.152 11.667-13.152 26.06-13.152 26.059 5.8885 26.059 13.152z" fill="#3c3f46"/>
   <path d="m381.96 241.58c0 5.0847-8.167 9.2067-18.242 9.2067s-18.242-4.122-18.242-9.2067 8.1671-9.2067 18.242-9.2067 18.242 4.122 18.242 9.2067z" fill="#a09fad"/>
  </g>
  <path d="m272.8 274.76-13.112 5.4801 0.86194-44.184-38.869-24.405 53.49-16.38-2.3713 79.489z" fill="#989ba2"/>
  <path d="m231.43 270.69 28.254 9.5459 0.86194-44.184-38.869-24.405 9.7316 15.099 0.0214 43.944z" fill="#444b55"/>
 </g>
 <path d="m144.03 184.06 81.14-24.572 0.35356-21.213-36.239-19.799-45.255 65.584z" fill="#aaabaf"/>
 <path d="m144.03 184.06c-24.577-5.1095-50.234-14.982-74.423-31.289 6.7124-20.687 27.88-44.127 41.012-56.215l78.666 21.92-45.255 65.584z" fill="#e9e9e7"/>
 <g transform="translate(-178.86 1.5552)">
  <path d="m322.46 76.33c9.3586 9.3586 2.7941 31.097-14.662 48.553s-39.194 24.021-48.553 14.662-2.794-31.097 14.662-48.553 39.194-24.021 48.553-14.662z" fill="#97989d"/>
  <path transform="matrix(.70711,-.70711,.70711,.70711,0,0)" d="m84.732 228.17h89.31v55.416h-89.31z" fill="#97989d"/>
  <path d="m284.48 38.35c9.3586 9.3586 2.7941 31.097-14.662 48.553s-39.194 24.021-48.553 14.662-2.794-31.097 14.662-48.553 39.194-24.021 48.553-14.662z" fill="#e3e5e4"/>
 </g>
 <g transform="matrix(.70711 -.70711 .70711 .70711 -86.779 210.49)">
  <path d="m236.16 13.181c-1e-5 7.6864-11.623 13.917-25.96 13.917s-25.96-6.231-25.96-13.917 11.623-13.917 25.96-13.917 25.96 6.231 25.96 13.917z" fill="#141519"/>
  <path d="m184.29-57.578h51.867v71.683h-51.867z" fill="#141519"/>
  <path d="m236.16-58.013c-1e-5 7.6864-11.623 13.917-25.96 13.917s-25.96-6.231-25.96-13.917 11.623-13.917 25.96-13.917 25.96 6.231 25.96 13.917z" fill="#4d4d4d"/>
 </g>
 <g transform="translate(-130.86 21.555)">
  <path d="m322.46 76.33c9.3586 9.3586 2.7941 31.097-14.662 48.553s-39.194 24.021-48.553 14.662-2.794-31.097 14.662-48.553 39.194-24.021 48.553-14.662z" fill="#97989d"/>
  <path transform="matrix(.70711,-.70711,.70711,.70711,0,0)" d="m84.732 228.17h89.31v55.416h-89.31z" fill="#97989d"/>
  <path d="m284.48 38.35c9.3586 9.3586 2.7941 31.097-14.662 48.553s-39.194 24.021-48.553 14.662-2.794-31.097 14.662-48.553 39.194-24.021 48.553-14.662z" fill="#e3e5e4"/>
 </g>
 <g transform="matrix(.70711 -.70711 .70711 .70711 -38.779 230.49)">
  <path d="m236.16 13.181c-1e-5 7.6864-11.623 13.917-25.96 13.917s-25.96-6.231-25.96-13.917 11.623-13.917 25.96-13.917 25.96 6.231 25.96 13.917z" fill="#141519"/>
  <path d="m184.29-57.578h51.867v71.683h-51.867z" fill="#141519"/>
  <path d="m236.16-58.013c-1e-5 7.6864-11.623 13.917-25.96 13.917s-25.96-6.231-25.96-13.917 11.623-13.917 25.96-13.917 25.96 6.231 25.96 13.917z" fill="#4d4d4d"/>
 </g>
 <path d="m192.2 209.76c-2.25 12.11-22.228 22.184-49.263 22.184s-45.95-9.7614-48.95-22.371l10.897 47.922c20.577 20.1 59.178 17.682 77.672 0.8301l9.6437-48.565z" fill="#1f2326"/>
</svg>
